<svg width="441" height="390" viewBox="0 0 441 390" fill="none" xmlns="http://www.w3.org/2000/svg">
<circle cx="197.5" cy="334.5" r="7.5" fill="#5189E3"/>
<circle cx="227.5" cy="334.5" r="7.5" fill="#5189E3"/>
<circle cx="257.5" cy="334.5" r="7.5" fill="#5189E3"/>
<circle cx="167.5" cy="334.5" r="7.5" fill="#5189E3"/>
<circle cx="137.5" cy="334.5" r="7.5" fill="#5189E3"/>
<circle cx="182.5" cy="310.5" r="7.5" fill="#5189E3"/>
<circle cx="212.5" cy="310.5" r="7.5" fill="#5189E3"/>
<circle cx="242.5" cy="310.5" r="7.5" fill="#5189E3"/>
<circle cx="152.5" cy="310.5" r="7.5" fill="#5189E3"/>
<circle cx="152.5" cy="358.5" r="7.5" fill="#5189E3"/>
<circle cx="167.5" cy="382.5" r="7.5" fill="#5189E3"/>
<circle cx="137.5" cy="382.5" r="7.5" fill="#5189E3"/>
<circle cx="182.5" cy="358.5" r="7.5" fill="#5189E3"/>
<circle cx="197.5" cy="382.5" r="7.5" fill="#5189E3"/>
<circle cx="212.5" cy="358.5" r="7.5" fill="#5189E3"/>
<circle cx="242.5" cy="358.5" r="7.5" fill="#5189E3"/>
<circle cx="227.5" cy="382.5" r="7.5" fill="#5189E3"/>
<circle r="7.5" transform="matrix(1 0 0 -1 373.5 135.5)" fill="#FFD800"/>
<circle r="7.5" transform="matrix(1 0 0 -1 388.5 159.5)" fill="#FFD800"/>
<circle r="7.5" transform="matrix(1 0 0 -1 418.5 159.5)" fill="#FFD800"/>
<circle r="7.5" transform="matrix(1 0 0 -1 403.5 135.5)" fill="#FFD800"/>
<circle r="7.5" transform="matrix(1 0 0 -1 433.5 135.5)" fill="#FFD800"/>
<circle r="7.5" transform="matrix(1 0 0 -1 343.5 135.5)" fill="#FFD800"/>
<circle r="7.5" transform="matrix(1 0 0 -1 313.5 135.5)" fill="#FFD800"/>
<circle r="7.5" transform="matrix(1 0 0 -1 358.5 159.5)" fill="#FFD800"/>
<circle r="7.5" transform="matrix(1 0 0 -1 328.5 159.5)" fill="#FFD800"/>
<circle r="7.5" transform="matrix(1 0 0 -1 328.5 111.5)" fill="#FFD800"/>
<circle r="7.5" transform="matrix(1 0 0 -1 343.5 87.5)" fill="#FFD800"/>
<circle r="7.5" transform="matrix(1 0 0 -1 358.5 111.5)" fill="#FFD800"/>
<circle r="7.5" transform="matrix(1 0 0 -1 373.5 87.5)" fill="#FFD800"/>
<circle r="7.5" transform="matrix(1 0 0 -1 388.5 111.5)" fill="#FFD800"/>
<circle r="7.5" transform="matrix(1 0 0 -1 418.5 111.5)" fill="#FFD800"/>
<circle r="7.5" transform="matrix(1 0 0 -1 403.5 87.5)" fill="#FFD800"/>
<circle r="7.5" transform="matrix(1 0 0 -1 433.5 87.5)" fill="#FFD800"/>
<circle r="7.5" transform="matrix(1 0 0 -1 37.5001 55.5)" fill="#E94A96"/>
<circle r="7.5" transform="matrix(1 0 0 -1 67.5 79.5)" fill="#E94A96"/>
<circle r="7.5" transform="matrix(1 0 0 -1 97.5 79.5)" fill="#E94A96"/>
<circle r="7.5" transform="matrix(1 0 0 -1 127.5 79.5)" fill="#E94A96"/>
<circle r="7.5" transform="matrix(1 0 0 -1 67.5001 55.5)" fill="#E94A96"/>
<circle r="7.5" transform="matrix(1 0 0 -1 97.5001 55.5)" fill="#E94A96"/>
<circle r="7.5" transform="matrix(1 0 0 -1 127.5 55.5)" fill="#E94A96"/>
<circle r="7.5" transform="matrix(1 0 0 -1 7.50005 55.5)" fill="#E94A96"/>
<circle r="7.5" transform="matrix(1 0 0 -1 37.5 79.5)" fill="#E94A96"/>
<circle r="7.5" transform="matrix(1 0 0 -1 7.5 79.5)" fill="#E94A96"/>
<circle r="7.5" transform="matrix(1 0 0 -1 7.50005 31.5)" fill="#E94A96"/>
<circle r="7.5" transform="matrix(1 0 0 -1 7.50005 7.50002)" fill="#E94A96"/>
<circle r="7.5" transform="matrix(1 0 0 -1 37.5 31.5)" fill="#E94A96"/>
<circle r="7.5" transform="matrix(1 0 0 -1 37.5001 7.50002)" fill="#E94A96"/>
<circle r="7.5" transform="matrix(1 0 0 -1 67.5001 31.5)" fill="#E94A96"/>
<circle r="7.5" transform="matrix(1 0 0 -1 97.5001 31.5)" fill="#E94A96"/>
<circle r="7.5" transform="matrix(1 0 0 -1 127.5 31.5)" fill="#E94A96"/>
<circle r="7.5" transform="matrix(1 0 0 -1 67.5001 7.50002)" fill="#E94A96"/>
<circle r="7.5" transform="matrix(1 0 0 -1 97.5001 7.50002)" fill="#E94A96"/>
<circle r="7.5" transform="matrix(1 0 0 -1 127.5 7.50002)" fill="#E94A96"/>
</svg>
